<?xml version="1.0" encoding="UTF-8" standalone="no"?><!DOCTYPE svg PUBLIC "-//W3C//DTD SVG 1.1//EN" "http://www.w3.org/Graphics/SVG/1.1/DTD/svg11.dtd"><svg width="100%" height="100%" viewBox="0 0 36 36" version="1.1" xmlns="http://www.w3.org/2000/svg" xmlns:xlink="http://www.w3.org/1999/xlink" xml:space="preserve" xmlns:serif="http://www.serif.com/" style="fill-rule:evenodd;clip-rule:evenodd;stroke-linecap:round;stroke-linejoin:round;stroke-miterlimit:1.5;"><g id="camera-selected"><path d="M10.179,11.567l-3.613,0c-2.367,0 -4.289,1.922 -4.289,4.29l0,9.707c0,2.368 1.922,4.289 4.289,4.289l22.372,0c2.367,0 4.289,-1.921 4.289,-4.289l0,-9.707c0,-2.368 -1.922,-4.29 -4.289,-4.29l-3.639,0" style="fill:#fff;stroke:#fff;stroke-width:2px;"/><path d="M25.301,11.567c0,0 -1.135,-1.735 -1.962,-3c-0.529,-0.808 -1.43,-1.295 -2.396,-1.295c-1.382,0 -3.191,0 -3.191,0" style="fill:#fff;stroke:#fff;stroke-width:2px;"/><path d="M10.203,11.567c0,0 1.135,-1.734 1.962,-2.999c0.529,-0.809 1.43,-1.296 2.397,-1.296c1.383,0 3.19,0 3.19,0" style="fill:#fff;stroke:#fff;stroke-width:2px;"/><rect x="11.213" y="9.42" width="13.687" height="2.657" style="fill:#fff;"/><rect x="13.409" y="8.193" width="9.163" height="2.024" style="fill:#fff;"/><circle cx="17.898" cy="20.314" r="6.123" style="fill:#ff0052;stroke:#ff0052;stroke-width:2px;"/><circle cx="28.293" cy="15.719" r="1.528" style="fill:#ff0052;stroke:#ff0052;stroke-width:2px;"/><rect x="0.109" y="0.347" width="35.578" height="35.578" style="fill:none;"/></g></svg>