<?xml version="1.0" encoding="UTF-8" standalone="no"?><!DOCTYPE svg PUBLIC "-//W3C//DTD SVG 1.1//EN" "http://www.w3.org/Graphics/SVG/1.1/DTD/svg11.dtd"><svg width="100%" height="100%" viewBox="0 0 36 36" version="1.1" xmlns="http://www.w3.org/2000/svg" xmlns:xlink="http://www.w3.org/1999/xlink" xml:space="preserve" xmlns:serif="http://www.serif.com/" style="fill-rule:evenodd;clip-rule:evenodd;stroke-linecap:round;stroke-linejoin:round;stroke-miterlimit:1.5;"><g id="camera-normal"><circle cx="28.331" cy="15.719" r="1.528" style="fill:#fff;"/><circle cx="17.937" cy="20.314" r="6.123" style="fill:none;stroke:#fff;stroke-width:2px;"/><path d="M10.217,11.567l-3.612,0c-2.367,0 -4.289,1.922 -4.289,4.29l0,9.707c0,2.368 1.922,4.289 4.289,4.289l22.372,0c2.367,0 4.289,-1.921 4.289,-4.289l0,-9.707c0,-2.368 -1.922,-4.29 -4.289,-4.29l-3.639,0" style="fill:none;stroke:#fff;stroke-width:2px;"/><path d="M25.34,11.567c0,0 -1.135,-1.735 -1.962,-3c-0.529,-0.808 -1.43,-1.295 -2.396,-1.295c-1.383,0 -3.191,0 -3.191,0" style="fill:none;stroke:#fff;stroke-width:2px;"/><path d="M10.242,11.567c0,0 1.134,-1.734 1.961,-2.999c0.529,-0.809 1.431,-1.296 2.397,-1.296c1.383,0 3.191,0 3.191,0" style="fill:none;stroke:#fff;stroke-width:2px;"/><rect x="0.147" y="0.347" width="35.578" height="35.578" style="fill:none;"/></g></svg>