<?xml version="1.0" encoding="UTF-8" standalone="no"?><!DOCTYPE svg PUBLIC "-//W3C//DTD SVG 1.1//EN" "http://www.w3.org/Graphics/SVG/1.1/DTD/svg11.dtd"><svg width="100%" height="100%" viewBox="0 0 36 36" version="1.1" xmlns="http://www.w3.org/2000/svg" xmlns:xlink="http://www.w3.org/1999/xlink" xml:space="preserve" xmlns:serif="http://www.serif.com/" style="fill-rule:evenodd;clip-rule:evenodd;stroke-linecap:round;stroke-linejoin:round;stroke-miterlimit:1.5;"><g id="map-normal"><circle cx="21.225" cy="17.455" r="2.449" style="fill:#fff;"/><path d="M29.922,11.822c0,-1.773 -1.439,-3.213 -3.213,-3.213l-17.113,0c-1.773,0 -3.213,1.44 -3.213,3.213l0,13.065c0,1.774 1.44,3.213 3.213,3.213l17.113,0c1.774,0 3.213,-1.439 3.213,-3.213l0,-13.065Z" style="fill:none;stroke:#fff;stroke-width:2px;"/><path d="M21.225,12.406c2.686,0 4.867,2.181 4.867,4.867c0,2.686 -2.413,5.26 -4.867,8.362c-2.322,-2.844 -4.867,-5.676 -4.867,-8.362c0,-2.686 2.181,-4.867 4.867,-4.867Z" style="fill:none;stroke:#fff;stroke-width:2px;"/><rect x="0.364" y="0.347" width="35.578" height="35.578" style="fill:none;"/></g></svg>