<?xml version="1.0" encoding="UTF-8" standalone="no"?>
<!DOCTYPE svg PUBLIC "-//W3C//DTD SVG 1.1//EN" "http://www.w3.org/Graphics/SVG/1.1/DTD/svg11.dtd">
<svg width="100%" height="100%" viewBox="0 0 250 288" version="1.1" xmlns="http://www.w3.org/2000/svg" xmlns:xlink="http://www.w3.org/1999/xlink" xml:space="preserve" xmlns:serif="http://www.serif.com/" style="fill-rule:evenodd;clip-rule:evenodd;stroke-linejoin:round;stroke-miterlimit:1.41421;">
    <g transform="matrix(1,0,0,1,-250.292,-451.761)">
        <g transform="matrix(1,0,0,1.42945,0,0)">
            <g transform="matrix(1,0,0,0.699571,0.877026,-36.5449)">
                <path d="M374.123,504L249.415,576L374.123,648L498.831,576L374.123,504Z" style="fill:rgb(244,0,98);"/>
            </g>
        </g>
        <g transform="matrix(1,0,0,1.42945,0,0)">
            <g transform="matrix(1,0,0,0.699571,0.877026,-36.5449)">
                <path d="M249.415,576L249.415,720L375,791.494L375,648.506L249.415,576Z" style="fill:rgb(255,0,98);"/>
            </g>
        </g>
        <g transform="matrix(1,0,0,1.42945,0,0)">
            <g transform="matrix(-1,0,0,0.699571,749.123,-36.5449)">
                <path d="M249.415,576L249.415,720L375,791.494L375,648.506L249.415,576Z" style="fill:rgb(207,0,76);"/>
            </g>
        </g>
        <g transform="matrix(1,0,0,1.42945,0,0)">
            <g transform="matrix(1.34667,0.543916,-1.49859,0.650846,879.946,-251.451)">
                <path d="M345.108,669.794L352.028,669.794L341.206,638.688L333.554,638.688L322.754,669.794L329.437,669.794L331.808,662.249L342.737,662.249L345.108,669.794ZM337.197,644.638L337.348,644.638L341.336,657.378L333.209,657.378L337.197,644.638Z" style="fill:white;fill-rule:nonzero;"/>
                <path d="M361.706,643.776L367.246,643.776C370.48,643.776 372.506,645.716 372.506,648.734C372.506,651.816 370.587,653.691 367.311,653.691L361.706,653.691L361.706,643.776ZM361.706,658.412L366.923,658.412L372.721,669.794L380.093,669.794L373.54,657.442C377.119,656.041 379.188,652.592 379.188,648.604C379.188,642.461 375.092,638.688 367.936,638.688L355.196,638.688L355.196,669.794L361.706,669.794L361.706,658.412Z" style="fill:white;fill-rule:nonzero;"/>
            </g>
        </g>
    </g>
</svg>
