# Blender v2.79 (sub 0) OBJ File: 'M2.blend'
# www.blender.org
mtllib M2.mtl
o Cube
v 1.000000 -1.000000 -1.000000
v 1.000000 -1.000000 1.000000
v -1.000000 -1.000000 1.000000
v -1.000000 -1.000000 -1.000000
v 1.000000 1.000000 -0.999999
v 0.999999 1.000000 1.000001
v -1.000000 1.000000 1.000000
v -1.000000 1.000000 -1.000000
v 1.000000 0.315597 1.000000
v -1.000000 0.315597 1.000000
v 1.000000 -0.023580 1.000000
v -1.000000 -0.023580 1.000000
v -1.000000 0.315597 0.806584
v 1.000000 0.315597 0.806585
v 1.000000 -0.023580 0.806585
v -1.000000 -0.023580 0.806584
v -0.354839 -1.000000 1.000000
v -0.354839 -0.023580 1.000000
v -0.258864 0.315597 1.000000
v 0.358779 -1.000000 1.000000
v 0.358778 -0.023580 1.000000
v -0.256894 -0.023580 1.000000
v -0.532358 0.315597 1.000000
v -0.533607 -0.023580 1.000000
v 0.219923 -0.023580 1.000000
v 0.219564 0.315597 1.000000
v -0.115559 -0.023580 1.000000
v 0.108547 -0.023580 1.000000
v -0.118473 -1.000000 1.000000
v 0.108468 -1.000000 1.000000
v -0.354839 -0.463852 1.000000
v -0.354839 -0.707957 1.000000
v 0.358778 -0.460856 1.000000
v 0.358779 -0.704961 1.000000
v -0.117016 -0.462354 1.000000
v 0.108508 -0.459774 1.000000
v 0.108488 -0.705918 1.000000
v -0.120179 -0.706938 1.000000
v -0.354839 -1.000000 1.128508
v -0.354839 -0.023580 1.128508
v 0.358779 -1.000000 1.128508
v 0.358778 -0.023580 1.128508
v -0.256894 -0.023580 1.128508
v 0.219923 -0.023580 1.128508
v -0.115559 -0.023580 1.128508
v 0.108547 -0.023580 1.128508
v -0.118473 -1.000000 1.128508
v 0.108468 -1.000000 1.128508
v -0.354839 -0.463852 1.128508
v -0.354839 -0.707957 1.128508
v 0.358778 -0.460856 1.128508
v 0.358779 -0.704961 1.128508
v -0.117016 -0.462354 1.128508
v 0.108508 -0.459774 1.128508
v 0.108488 -0.705918 1.128508
v -0.120179 -0.706938 1.128508
v -0.117016 -0.462354 1.182877
v 0.108508 -0.459774 1.182877
v 0.108488 -0.705918 1.182876
v -0.120179 -0.706938 1.182876
v -0.532510 0.314930 0.954693
v -0.258026 -0.022335 0.951721
v -0.258868 0.316079 0.954693
v 0.218883 0.314930 0.954693
v -1.000000 0.316752 0.954692
v 1.000000 0.315750 0.954693
v 1.000000 0.279145 0.806585
v 0.953763 0.277651 0.806699
v -0.533058 -0.022335 0.951721
v 0.219452 -0.022335 0.951721
v -1.000000 -0.023148 0.951721
v -0.956570 0.316583 0.954692
v -0.956556 0.315597 1.000000
v 1.000000 -0.022595 0.951721
v 0.955208 0.029320 0.807693
v 1.000000 0.028310 0.806585
v -0.955354 0.314535 0.806189
v -0.954656 -0.023580 1.000000
v -0.955354 -0.024114 0.806189
v -0.954603 -0.023069 0.951721
v 0.955208 -0.024800 0.807693
v 0.953763 0.314528 0.806699
v 0.953828 0.315706 0.954693
v 0.955965 -0.023580 1.000000
v 0.953864 0.315597 1.000000
v 0.955937 -0.022580 0.951721
v 0.500320 -0.023580 1.000000
v 0.499298 0.315597 1.000000
v 0.498862 0.315225 0.954693
v 0.500018 -0.022428 0.951721
vn -1.0000 0.0001 0.0000
vn -0.0043 -1.0000 0.0000
vn 0.0114 -0.9999 0.0000
vn 0.0038 -1.0000 0.0000
vn -1.0000 0.0033 0.0000
vn 0.0045 -1.0000 0.0000
vn 0.0043 -1.0000 0.0000
vn -1.0000 -0.0058 0.0000
vn 0.0063 -1.0000 0.0000
vn -0.9999 0.0129 0.0000
vn 1.0000 0.0000 0.0000
vn -1.0000 -0.0000 -0.0000
vn 0.0000 1.0000 0.0000
vn -1.0000 -0.0029 -0.0015
vn 1.0000 0.0053 -0.0028
vn 0.0000 -0.0088 1.0000
vn -0.0000 0.0000 -1.0000
vn -0.0000 0.0000 1.0000
vn 0.0000 -1.0000 -0.0000
vn 0.0000 -0.9997 -0.0258
vn 0.0134 0.0020 0.9999
vn 0.0009 -0.9998 -0.0182
vn 0.0002 0.9998 0.0206
vn -0.0000 0.9997 0.0258
vn 0.0089 0.0000 1.0000
vn 0.0050 1.0000 -0.0051
vn 0.0009 -1.0000 -0.0098
vn 0.0025 -0.0000 1.0000
vn 0.0247 0.0000 0.9997
vn -0.0137 0.9998 -0.0110
vn 0.0002 0.9998 0.0223
vn 0.0002 0.9997 0.0248
vn 0.0021 -1.0000 0.0020
vn -0.0139 -0.9998 0.0107
vn -0.0019 -1.0000 -0.0035
vn 0.0005 -0.9999 0.0115
vn -0.0012 -1.0000 0.0021
vn -0.0019 -0.9997 -0.0236
vn 0.0121 -0.9999 0.0045
vn 0.0005 -1.0000 -0.0029
vn 0.0005 -1.0000 0.0029
usemtl Material
s off
f 36//1 37//1 55//1 54//1
f 36//2 33//2 51//2 54//2
f 35//3 36//3 54//3 53//3
f 37//4 34//4 52//4 55//4
f 27//5 35//5 53//5 45//5
f 37//1 30//1 48//1 55//1
f 38//6 37//6 55//6 56//6
f 32//7 38//7 56//7 50//7
f 38//8 29//8 47//8 56//8
f 31//9 35//9 53//9 49//9
f 35//10 38//10 56//10 53//10
f 28//1 36//1 54//1 46//1
usemtl マテリアル
f 11//11 2//11 1//11 5//11 6//11 9//11 14//11 67//11 76//11 15//11
usemtl マテリアル.001
f 7//12 8//12 4//12 3//12 12//12 16//12 13//12 10//12
usemtl マテリアル.002
f 5//13 8//13 7//13 6//13
usemtl マテリアル.003
f 77//14 79//14 80//14 72//14
f 81//15 82//15 83//15 86//15
f 90//16 86//16 83//16 89//16
f 72//16 80//16 69//16 61//16
usemtl マテリアル.004
f 70//16 64//16 63//16 62//16
usemtl マテリアル.005
f 70//16 90//16 89//16 64//16
usemtl マテリアル.006
f 63//16 61//16 69//16 62//16
usemtl マテリアル.010
f 53//10 56//10 60//10 57//10
f 56//6 55//6 59//6 60//6
f 53//3 54//3 58//3 57//3
f 54//1 55//1 59//1 58//1
f 59//17 60//17 57//17 58//17
usemtl マテリアル.011
f 17//18 32//18 31//18 18//18 24//18 78//18 12//18 3//18
f 17//19 3//19 4//19 1//19 2//19 20//19 30//19 29//19
f 2//18 11//18 84//18 87//18 25//18 21//18 33//18 34//18 20//18
f 6//18 7//18 10//18 73//18 23//18 19//18 26//18 88//18 85//18 9//18
f 43//18 40//18 49//18 53//18 45//18
f 33//11 21//11 42//11 51//11
f 17//19 29//19 47//19 39//19
f 20//11 34//11 52//11 41//11
f 25//13 28//13 46//13 44//13
f 21//13 25//13 44//13 42//13
f 34//11 33//11 51//11 52//11
f 29//19 30//19 48//19 47//19
f 22//13 18//13 40//13 43//13
f 30//19 20//19 41//19 48//19
f 32//12 17//12 39//12 50//12
f 27//13 22//13 43//13 45//13
f 18//12 31//12 49//12 40//12
f 31//12 32//12 50//12 49//12
f 28//13 27//13 45//13 46//13
f 54//18 46//18 45//18 53//18
f 24//20 69//20 62//20 22//20
f 76//21 67//21 68//21 75//21
f 78//22 80//22 69//22 24//22
f 84//23 11//23 74//23 86//23
f 62//24 22//24 25//24 70//24
f 16//25 79//25 77//25 13//25
f 79//26 16//26 71//26 80//26
f 12//27 71//27 80//27 78//27
f 68//28 67//28 14//28 82//28
f 76//29 75//29 81//29 15//29
f 15//30 81//30 86//30 74//30
f 87//31 84//31 86//31 90//31
f 25//32 87//32 90//32 70//32
f 51//18 42//18 44//18 46//18 54//18
f 51//18 54//18 55//18 52//18
f 52//18 55//18 48//18 41//18
f 48//18 55//18 56//18 47//18
f 53//18 49//18 50//18 56//18
f 47//18 56//18 50//18 39//18
usemtl マテリアル.012
f 8//17 5//17 1//17 4//17
f 23//33 61//33 63//33 19//33
f 13//34 77//34 72//34 65//34
f 73//35 72//35 61//35 23//35
f 89//36 88//36 26//36 64//36
f 26//37 19//37 63//37 64//37
f 10//38 65//38 72//38 73//38
f 82//39 14//39 66//39 83//39
f 66//40 9//40 85//40 83//40
f 83//41 85//41 88//41 89//41
